<svg xmlns="http://www.w3.org/2000/svg" xmlns:xlink="http://www.w3.org/1999/xlink" width="800" zoomAndPan="magnify" viewBox="0 0 600 449.999984" height="600" preserveAspectRatio="xMidYMid meet" version="1.0"><defs><g/><clipPath id="2b0e99cbf0"><path d="M 95.632812 0 L 470.632812 0 L 470.632812 371 L 95.632812 371 Z M 95.632812 0 " clip-rule="nonzero"/></clipPath></defs><g clip-path="url(#2b0e99cbf0)"><path fill="#ffffff" d="M 470.574219 193.128906 C 470.574219 161.601562 450.984375 134.363281 421.90625 123.648438 C 423.140625 116.972656 423.753906 110.238281 423.742188 103.449219 C 423.742188 44.988281 376.300781 -2.453125 317.839844 -2.453125 C 283.867188 -2.453125 252.035156 13.769531 232.140625 41.621094 C 222.347656 33.96875 210.410156 29.992188 197.859375 29.992188 C 166.945312 29.992188 141.542969 55.085938 141.542969 86.308594 C 141.542969 93.042969 142.765625 99.777344 144.910156 105.898438 C 115.527344 115.996094 95.632812 144.15625 95.632812 175.375 C 95.632812 206.902344 115.21875 234.449219 144.601562 245.160156 C 143.378906 251.585938 142.765625 258.320312 142.765625 265.359375 C 142.765625 323.515625 190.207031 370.957031 248.363281 370.957031 C 282.640625 370.957031 314.167969 354.429688 334.0625 326.882812 C 343.855469 334.53125 356.097656 338.820312 368.648438 338.820312 C 399.5625 338.820312 424.964844 313.71875 424.964844 282.5 C 424.964844 275.769531 423.742188 269.035156 421.601562 262.914062 C 450.371094 252.507812 470.570312 224.347656 470.570312 193.128906 Z M 470.574219 193.128906 " fill-opacity="1" fill-rule="nonzero"/></g><path fill="#f4bd19" d="M 242.238281 157.929688 L 325.800781 196.1875 L 410.273438 122.117188 C 411.511719 115.957031 412.121094 109.734375 412.109375 103.449219 C 412.109375 51.417969 369.875 9.179688 317.839844 9.179688 C 286.621094 9.179688 257.542969 24.480469 240.097656 50.191406 L 226.019531 123.039062 Z M 242.238281 157.929688 " fill-opacity="1" fill-rule="nonzero"/><path fill="#3cbeb1" d="M 155.621094 246.382812 C 154.398438 252.507812 153.785156 258.933594 153.785156 265.363281 C 153.785156 317.394531 196.328125 359.9375 248.363281 359.9375 C 279.886719 359.9375 308.964844 344.328125 326.714844 318.617188 L 340.488281 245.773438 L 321.820312 210.265625 L 237.957031 172.007812 Z M 155.621094 246.382812 " fill-opacity="1" fill-rule="nonzero"/><path fill="#e9478c" d="M 155.011719 101.609375 L 212.246094 115.078125 L 225.101562 49.882812 C 217.144531 43.761719 207.652344 40.703125 197.554688 40.703125 C 172.761719 40.703125 152.253906 60.902344 152.253906 86 C 152.253906 91.203125 153.171875 96.714844 155.007812 101.609375 Z M 155.011719 101.609375 " fill-opacity="1" fill-rule="nonzero"/><path fill="#2c458f" d="M 150.113281 115.382812 C 124.402344 123.648438 106.648438 148.441406 106.648438 175.375 C 106.648438 201.699219 122.871094 225.265625 147.359375 234.449219 L 227.855469 161.601562 L 213.164062 130.078125 L 150.113281 115.386719 Z M 150.113281 115.382812 " fill-opacity="1" fill-rule="nonzero"/><path fill="#95c63d" d="M 341.410156 318.3125 C 349.367188 324.433594 358.855469 327.800781 368.648438 327.800781 C 393.441406 327.800781 413.949219 307.601562 413.949219 282.5 C 413.949219 276.992188 413.027344 271.789062 411.195312 266.890625 L 353.957031 253.425781 Z M 341.410156 318.3125 " fill-opacity="1" fill-rule="nonzero"/><path fill="#176655" d="M 353.039062 238.425781 L 416.089844 253.117188 C 441.800781 244.550781 459.550781 220.0625 459.550781 193.128906 C 459.550781 166.804688 443.332031 143.542969 418.84375 134.054688 L 336.207031 206.289062 Z M 353.039062 238.425781 " fill-opacity="1" fill-rule="nonzero"/><g fill="#ffffff" fill-opacity="1"><g transform="translate(115.110332, 438.349975)"><g><path d="M 13.09375 -17.5625 L 13.09375 -6.625 L 32.1875 -6.625 L 32.1875 0 L 5.203125 0 L 5.203125 -39.984375 L 31.75 -39.984375 L 31.75 -33.359375 L 13.09375 -33.359375 L 13.09375 -24.015625 L 29.390625 -24.015625 L 29.390625 -17.5625 Z M 13.09375 -17.5625 "/></g></g></g><g fill="#ffffff" fill-opacity="1"><g transform="translate(149.476628, 438.349975)"><g><path d="M 12.53125 0.578125 C 9.8125 0.578125 7.734375 -0.15625 6.296875 -1.625 C 4.867188 -3.09375 4.15625 -5.320312 4.15625 -8.3125 L 4.15625 -42.28125 L 11.734375 -42.28125 L 11.734375 -8.609375 C 11.734375 -6.773438 12.5 -5.859375 14.03125 -5.859375 C 14.46875 -5.859375 14.929688 -5.929688 15.421875 -6.078125 L 15.8125 -5.96875 L 16.484375 -0.140625 C 16.066406 0.078125 15.507812 0.25 14.8125 0.375 C 14.125 0.507812 13.363281 0.578125 12.53125 0.578125 Z M 12.53125 0.578125 "/></g></g></g><g fill="#ffffff" fill-opacity="1"><g transform="translate(166.810146, 438.349975)"><g><path d="M 11.765625 0.578125 C 9.828125 0.578125 8.144531 0.222656 6.71875 -0.484375 C 5.300781 -1.203125 4.207031 -2.25 3.4375 -3.625 C 2.675781 -5 2.296875 -6.65625 2.296875 -8.59375 C 2.296875 -10.375 2.675781 -11.867188 3.4375 -13.078125 C 4.207031 -14.296875 5.394531 -15.289062 7 -16.0625 C 8.601562 -16.84375 10.703125 -17.441406 13.296875 -17.859375 C 15.097656 -18.148438 16.46875 -18.46875 17.40625 -18.8125 C 18.34375 -19.15625 18.972656 -19.546875 19.296875 -19.984375 C 19.628906 -20.421875 19.796875 -20.976562 19.796875 -21.65625 C 19.796875 -22.625 19.457031 -23.363281 18.78125 -23.875 C 18.113281 -24.382812 16.992188 -24.640625 15.421875 -24.640625 C 13.742188 -24.640625 12.148438 -24.265625 10.640625 -23.515625 C 9.128906 -22.765625 7.816406 -21.78125 6.703125 -20.5625 L 6.15625 -20.5625 L 2.984375 -25.34375 C 4.515625 -27.039062 6.378906 -28.363281 8.578125 -29.3125 C 10.785156 -30.257812 13.195312 -30.734375 15.8125 -30.734375 C 19.800781 -30.734375 22.6875 -29.882812 24.46875 -28.1875 C 26.257812 -26.5 27.15625 -24.09375 27.15625 -20.96875 L 27.15625 -7.875 C 27.15625 -6.53125 27.75 -5.859375 28.9375 -5.859375 C 29.382812 -5.859375 29.828125 -5.9375 30.265625 -6.09375 L 30.65625 -5.984375 L 31.203125 -0.71875 C 30.785156 -0.4375 30.203125 -0.207031 29.453125 -0.03125 C 28.703125 0.132812 27.878906 0.21875 26.984375 0.21875 C 25.179688 0.21875 23.773438 -0.125 22.765625 -0.8125 C 21.753906 -1.507812 21.03125 -2.597656 20.59375 -4.078125 L 20.015625 -4.125 C 18.535156 -0.988281 15.785156 0.578125 11.765625 0.578125 Z M 14.171875 -5.09375 C 15.921875 -5.09375 17.316406 -5.675781 18.359375 -6.84375 C 19.410156 -8.019531 19.9375 -9.660156 19.9375 -11.765625 L 19.9375 -14.828125 L 19.421875 -14.9375 C 18.960938 -14.570312 18.363281 -14.265625 17.625 -14.015625 C 16.882812 -13.765625 15.820312 -13.523438 14.4375 -13.296875 C 12.800781 -13.015625 11.617188 -12.539062 10.890625 -11.875 C 10.171875 -11.21875 9.8125 -10.273438 9.8125 -9.046875 C 9.8125 -7.753906 10.191406 -6.769531 10.953125 -6.09375 C 11.722656 -5.425781 12.796875 -5.09375 14.171875 -5.09375 Z M 14.171875 -5.09375 "/></g></g></g><g fill="#ffffff" fill-opacity="1"><g transform="translate(198.606488, 438.349975)"><g><path d="M 14.109375 0.578125 C 12.046875 0.578125 10.15625 0.335938 8.4375 -0.140625 C 6.726562 -0.628906 5.269531 -1.296875 4.0625 -2.140625 C 2.851562 -2.992188 1.957031 -3.96875 1.375 -5.0625 L 5.578125 -9.59375 L 6.15625 -9.59375 C 7.15625 -8.25 8.335938 -7.238281 9.703125 -6.5625 C 11.078125 -5.882812 12.566406 -5.546875 14.171875 -5.546875 C 15.640625 -5.546875 16.75 -5.8125 17.5 -6.34375 C 18.25 -6.875 18.625 -7.628906 18.625 -8.609375 C 18.625 -9.378906 18.351562 -10.023438 17.8125 -10.546875 C 17.28125 -11.066406 16.410156 -11.472656 15.203125 -11.765625 L 11.21875 -12.71875 C 8.226562 -13.425781 6.039062 -14.515625 4.65625 -15.984375 C 3.28125 -17.453125 2.59375 -19.316406 2.59375 -21.578125 C 2.59375 -23.453125 3.070312 -25.082031 4.03125 -26.46875 C 4.988281 -27.851562 6.335938 -28.910156 8.078125 -29.640625 C 9.816406 -30.367188 11.847656 -30.734375 14.171875 -30.734375 C 16.878906 -30.734375 19.125 -30.34375 20.90625 -29.5625 C 22.695312 -28.78125 24.097656 -27.734375 25.109375 -26.421875 L 21.0625 -22.046875 L 20.515625 -22.046875 C 19.671875 -22.992188 18.722656 -23.6875 17.671875 -24.125 C 16.628906 -24.5625 15.460938 -24.78125 14.171875 -24.78125 C 11.179688 -24.78125 9.6875 -23.847656 9.6875 -21.984375 C 9.6875 -21.203125 9.960938 -20.5625 10.515625 -20.0625 C 11.066406 -19.570312 12.046875 -19.175781 13.453125 -18.875 L 17.171875 -18.046875 C 20.234375 -17.390625 22.46875 -16.335938 23.875 -14.890625 C 25.289062 -13.441406 26 -11.492188 26 -9.046875 C 26 -7.140625 25.523438 -5.457031 24.578125 -4 C 23.628906 -2.539062 22.257812 -1.410156 20.46875 -0.609375 C 18.6875 0.179688 16.566406 0.578125 14.109375 0.578125 Z M 14.109375 0.578125 "/></g></g></g><g fill="#ffffff" fill-opacity="1"><g transform="translate(226.4112, 438.349975)"><g><path d="M 20.8125 -7.1875 L 22.78125 -1.59375 C 21.957031 -0.914062 20.925781 -0.382812 19.6875 0 C 18.445312 0.382812 17.046875 0.578125 15.484375 0.578125 C 12.210938 0.578125 9.726562 -0.3125 8.03125 -2.09375 C 6.34375 -3.875 5.5 -6.457031 5.5 -9.84375 L 5.5 -24.171875 L 0.90625 -24.171875 L 0.90625 -30.1875 L 5.5 -30.1875 L 5.5 -36.0625 L 13.078125 -37.296875 L 13.078125 -30.1875 L 21.625 -30.1875 L 21.625 -24.171875 L 13.078125 -24.171875 L 13.078125 -10.390625 C 13.078125 -8.898438 13.382812 -7.8125 14 -7.125 C 14.625 -6.4375 15.523438 -6.09375 16.703125 -6.09375 C 18.054688 -6.09375 19.234375 -6.457031 20.234375 -7.1875 Z M 20.8125 -7.1875 "/></g></g></g><g fill="#ffffff" fill-opacity="1"><g transform="translate(249.841523, 438.349975)"><g><path d="M 8.125 -33.765625 C 6.757812 -33.765625 5.644531 -34.179688 4.78125 -35.015625 C 3.925781 -35.847656 3.5 -36.921875 3.5 -38.234375 C 3.5 -39.523438 3.925781 -40.582031 4.78125 -41.40625 C 5.644531 -42.238281 6.757812 -42.65625 8.125 -42.65625 C 9.03125 -42.65625 9.835938 -42.460938 10.546875 -42.078125 C 11.265625 -41.703125 11.816406 -41.179688 12.203125 -40.515625 C 12.597656 -39.847656 12.796875 -39.085938 12.796875 -38.234375 C 12.796875 -37.367188 12.597656 -36.597656 12.203125 -35.921875 C 11.816406 -35.253906 11.265625 -34.726562 10.546875 -34.34375 C 9.835938 -33.957031 9.03125 -33.765625 8.125 -33.765625 Z M 4.34375 0 L 4.34375 -30.15625 L 11.921875 -30.15625 L 11.921875 0 Z M 4.34375 0 "/></g></g></g><g fill="#ffffff" fill-opacity="1"><g transform="translate(266.081444, 438.349975)"><g><path d="M 17.578125 0.578125 C 14.660156 0.578125 12.082031 -0.0234375 9.84375 -1.234375 C 7.601562 -2.453125 5.851562 -4.238281 4.59375 -6.59375 C 3.332031 -8.945312 2.703125 -11.769531 2.703125 -15.0625 C 2.703125 -18.382812 3.332031 -21.21875 4.59375 -23.5625 C 5.851562 -25.914062 7.59375 -27.695312 9.8125 -28.90625 C 12.039062 -30.125 14.585938 -30.734375 17.453125 -30.734375 C 23.804688 -30.734375 27.878906 -28.425781 29.671875 -23.8125 L 24.46875 -20.09375 L 23.90625 -20.09375 C 23.28125 -21.519531 22.46875 -22.578125 21.46875 -23.265625 C 20.476562 -23.960938 19.140625 -24.3125 17.453125 -24.3125 C 15.265625 -24.3125 13.554688 -23.550781 12.328125 -22.03125 C 11.109375 -20.519531 10.5 -18.195312 10.5 -15.0625 C 10.5 -11.96875 11.117188 -9.660156 12.359375 -8.140625 C 13.597656 -6.617188 15.335938 -5.859375 17.578125 -5.859375 C 19.222656 -5.859375 20.613281 -6.296875 21.75 -7.171875 C 22.894531 -8.054688 23.710938 -9.332031 24.203125 -11 L 24.78125 -11.046875 L 30.15625 -8.09375 C 29.394531 -5.539062 27.976562 -3.457031 25.90625 -1.84375 C 23.84375 -0.226562 21.066406 0.578125 17.578125 0.578125 Z M 17.578125 0.578125 "/></g></g></g><g fill="#ffffff" fill-opacity="1"><g transform="translate(297.166948, 438.349975)"><g/></g></g><g fill="#ffffff" fill-opacity="1"><g transform="translate(310.372135, 438.349975)"><g><path d="M 17.71875 0.578125 C 14.945312 0.578125 12.476562 0.234375 10.3125 -0.453125 C 8.15625 -1.140625 6.359375 -2.035156 4.921875 -3.140625 C 3.484375 -4.253906 2.378906 -5.476562 1.609375 -6.8125 L 5.96875 -12.109375 L 6.640625 -12.109375 C 7.847656 -10.328125 9.375 -8.90625 11.21875 -7.84375 C 13.070312 -6.789062 15.238281 -6.265625 17.71875 -6.265625 C 19.832031 -6.265625 21.425781 -6.707031 22.5 -7.59375 C 23.582031 -8.488281 24.125 -9.722656 24.125 -11.296875 C 24.125 -12.242188 23.945312 -13.035156 23.59375 -13.671875 C 23.25 -14.304688 22.675781 -14.851562 21.875 -15.3125 C 21.070312 -15.769531 19.988281 -16.160156 18.625 -16.484375 L 13.484375 -17.671875 C 9.890625 -18.484375 7.210938 -19.84375 5.453125 -21.75 C 3.691406 -23.65625 2.8125 -26.128906 2.8125 -29.171875 C 2.8125 -31.429688 3.375 -33.414062 4.5 -35.125 C 5.632812 -36.84375 7.28125 -38.175781 9.4375 -39.125 C 11.601562 -40.070312 14.191406 -40.546875 17.203125 -40.546875 C 20.285156 -40.546875 22.921875 -40.140625 25.109375 -39.328125 C 27.304688 -38.523438 29.164062 -37.285156 30.6875 -35.609375 L 26.765625 -30.25 L 26.09375 -30.25 C 24.957031 -31.425781 23.660156 -32.3125 22.203125 -32.90625 C 20.742188 -33.5 19.078125 -33.796875 17.203125 -33.796875 C 15.035156 -33.796875 13.382812 -33.410156 12.25 -32.640625 C 11.125 -31.878906 10.5625 -30.828125 10.5625 -29.484375 C 10.5625 -28.222656 10.957031 -27.21875 11.75 -26.46875 C 12.539062 -25.71875 13.910156 -25.132812 15.859375 -24.71875 L 21.109375 -23.625 C 24.992188 -22.800781 27.8125 -21.410156 29.5625 -19.453125 C 31.3125 -17.492188 32.1875 -14.9375 32.1875 -11.78125 C 32.1875 -9.289062 31.644531 -7.117188 30.5625 -5.265625 C 29.488281 -3.410156 27.867188 -1.972656 25.703125 -0.953125 C 23.535156 0.0664062 20.875 0.578125 17.71875 0.578125 Z M 17.71875 0.578125 "/></g></g></g><g fill="#ffffff" fill-opacity="1"><g transform="translate(344.711091, 438.349975)"><g><path d="M 29.8125 -13.375 L 10.421875 -13.375 C 10.640625 -10.75 11.382812 -8.835938 12.65625 -7.640625 C 13.9375 -6.453125 15.679688 -5.859375 17.890625 -5.859375 C 19.617188 -5.859375 21.019531 -6.179688 22.09375 -6.828125 C 23.164062 -7.472656 24.03125 -8.453125 24.6875 -9.765625 L 25.265625 -9.765625 L 30.296875 -6.53125 C 29.316406 -4.414062 27.832031 -2.703125 25.84375 -1.390625 C 23.851562 -0.078125 21.203125 0.578125 17.890625 0.578125 C 14.765625 0.578125 12.066406 -0.015625 9.796875 -1.203125 C 7.535156 -2.390625 5.785156 -4.15625 4.546875 -6.5 C 3.316406 -8.84375 2.703125 -11.695312 2.703125 -15.0625 C 2.703125 -18.488281 3.347656 -21.378906 4.640625 -23.734375 C 5.941406 -26.085938 7.691406 -27.84375 9.890625 -29 C 12.097656 -30.15625 14.582031 -30.734375 17.34375 -30.734375 C 21.601562 -30.734375 24.867188 -29.601562 27.140625 -27.34375 C 29.410156 -25.082031 30.546875 -21.765625 30.546875 -17.390625 C 30.546875 -15.804688 30.488281 -14.578125 30.375 -13.703125 Z M 23.296875 -18.265625 C 23.222656 -20.566406 22.6875 -22.238281 21.6875 -23.28125 C 20.695312 -24.332031 19.25 -24.859375 17.34375 -24.859375 C 13.507812 -24.859375 11.253906 -22.660156 10.578125 -18.265625 Z M 23.296875 -18.265625 "/></g></g></g><g fill="#ffffff" fill-opacity="1"><g transform="translate(377.491659, 438.349975)"><g><path d="M 11.765625 0.578125 C 9.828125 0.578125 8.144531 0.222656 6.71875 -0.484375 C 5.300781 -1.203125 4.207031 -2.25 3.4375 -3.625 C 2.675781 -5 2.296875 -6.65625 2.296875 -8.59375 C 2.296875 -10.375 2.675781 -11.867188 3.4375 -13.078125 C 4.207031 -14.296875 5.394531 -15.289062 7 -16.0625 C 8.601562 -16.84375 10.703125 -17.441406 13.296875 -17.859375 C 15.097656 -18.148438 16.46875 -18.46875 17.40625 -18.8125 C 18.34375 -19.15625 18.972656 -19.546875 19.296875 -19.984375 C 19.628906 -20.421875 19.796875 -20.976562 19.796875 -21.65625 C 19.796875 -22.625 19.457031 -23.363281 18.78125 -23.875 C 18.113281 -24.382812 16.992188 -24.640625 15.421875 -24.640625 C 13.742188 -24.640625 12.148438 -24.265625 10.640625 -23.515625 C 9.128906 -22.765625 7.816406 -21.78125 6.703125 -20.5625 L 6.15625 -20.5625 L 2.984375 -25.34375 C 4.515625 -27.039062 6.378906 -28.363281 8.578125 -29.3125 C 10.785156 -30.257812 13.195312 -30.734375 15.8125 -30.734375 C 19.800781 -30.734375 22.6875 -29.882812 24.46875 -28.1875 C 26.257812 -26.5 27.15625 -24.09375 27.15625 -20.96875 L 27.15625 -7.875 C 27.15625 -6.53125 27.75 -5.859375 28.9375 -5.859375 C 29.382812 -5.859375 29.828125 -5.9375 30.265625 -6.09375 L 30.65625 -5.984375 L 31.203125 -0.71875 C 30.785156 -0.4375 30.203125 -0.207031 29.453125 -0.03125 C 28.703125 0.132812 27.878906 0.21875 26.984375 0.21875 C 25.179688 0.21875 23.773438 -0.125 22.765625 -0.8125 C 21.753906 -1.507812 21.03125 -2.597656 20.59375 -4.078125 L 20.015625 -4.125 C 18.535156 -0.988281 15.785156 0.578125 11.765625 0.578125 Z M 14.171875 -5.09375 C 15.921875 -5.09375 17.316406 -5.675781 18.359375 -6.84375 C 19.410156 -8.019531 19.9375 -9.660156 19.9375 -11.765625 L 19.9375 -14.828125 L 19.421875 -14.9375 C 18.960938 -14.570312 18.363281 -14.265625 17.625 -14.015625 C 16.882812 -13.765625 15.820312 -13.523438 14.4375 -13.296875 C 12.800781 -13.015625 11.617188 -12.539062 10.890625 -11.875 C 10.171875 -11.21875 9.8125 -10.273438 9.8125 -9.046875 C 9.8125 -7.753906 10.191406 -6.769531 10.953125 -6.09375 C 11.722656 -5.425781 12.796875 -5.09375 14.171875 -5.09375 Z M 14.171875 -5.09375 "/></g></g></g><g fill="#ffffff" fill-opacity="1"><g transform="translate(409.288013, 438.349975)"><g><path d="M 4.34375 0 L 4.34375 -30.15625 L 11.703125 -30.15625 L 11.703125 -25.671875 L 12.28125 -25.5625 C 13.007812 -27.238281 13.960938 -28.46875 15.140625 -29.25 C 16.328125 -30.039062 17.769531 -30.4375 19.46875 -30.4375 C 21.1875 -30.4375 22.488281 -30.144531 23.375 -29.5625 L 22.09375 -23.03125 L 21.515625 -22.921875 C 21.023438 -23.117188 20.550781 -23.257812 20.09375 -23.34375 C 19.644531 -23.4375 19.09375 -23.484375 18.4375 -23.484375 C 16.320312 -23.484375 14.707031 -22.738281 13.59375 -21.25 C 12.476562 -19.769531 11.921875 -17.390625 11.921875 -14.109375 L 11.921875 0 Z M 4.34375 0 "/></g></g></g><g fill="#ffffff" fill-opacity="1"><g transform="translate(432.937044, 438.349975)"><g><path d="M 17.578125 0.578125 C 14.660156 0.578125 12.082031 -0.0234375 9.84375 -1.234375 C 7.601562 -2.453125 5.851562 -4.238281 4.59375 -6.59375 C 3.332031 -8.945312 2.703125 -11.769531 2.703125 -15.0625 C 2.703125 -18.382812 3.332031 -21.21875 4.59375 -23.5625 C 5.851562 -25.914062 7.59375 -27.695312 9.8125 -28.90625 C 12.039062 -30.125 14.585938 -30.734375 17.453125 -30.734375 C 23.804688 -30.734375 27.878906 -28.425781 29.671875 -23.8125 L 24.46875 -20.09375 L 23.90625 -20.09375 C 23.28125 -21.519531 22.46875 -22.578125 21.46875 -23.265625 C 20.476562 -23.960938 19.140625 -24.3125 17.453125 -24.3125 C 15.265625 -24.3125 13.554688 -23.550781 12.328125 -22.03125 C 11.109375 -20.519531 10.5 -18.195312 10.5 -15.0625 C 10.5 -11.96875 11.117188 -9.660156 12.359375 -8.140625 C 13.597656 -6.617188 15.335938 -5.859375 17.578125 -5.859375 C 19.222656 -5.859375 20.613281 -6.296875 21.75 -7.171875 C 22.894531 -8.054688 23.710938 -9.332031 24.203125 -11 L 24.78125 -11.046875 L 30.15625 -8.09375 C 29.394531 -5.539062 27.976562 -3.457031 25.90625 -1.84375 C 23.84375 -0.226562 21.066406 0.578125 17.578125 0.578125 Z M 17.578125 0.578125 "/></g></g></g><g fill="#ffffff" fill-opacity="1"><g transform="translate(464.022537, 438.349975)"><g><path d="M 4.34375 0 L 4.34375 -42.28125 L 11.921875 -42.28125 L 11.921875 -26.21875 L 12.5 -26.109375 C 13.5 -27.585938 14.726562 -28.726562 16.1875 -29.53125 C 17.644531 -30.332031 19.40625 -30.734375 21.46875 -30.734375 C 28.125 -30.734375 31.453125 -26.960938 31.453125 -19.421875 L 31.453125 0 L 23.875 0 L 23.875 -18.453125 C 23.875 -20.515625 23.460938 -22.007812 22.640625 -22.9375 C 21.816406 -23.875 20.539062 -24.34375 18.8125 -24.34375 C 16.695312 -24.34375 15.019531 -23.632812 13.78125 -22.21875 C 12.539062 -20.800781 11.921875 -18.597656 11.921875 -15.609375 L 11.921875 0 Z M 4.34375 0 "/></g></g></g></svg>